<?xml version="1.0" standalone="no"?>
<!DOCTYPE svg PUBLIC "-//W3C//DTD SVG 20010904//EN"
 "http://www.w3.org/TR/2001/REC-SVG-20010904/DTD/svg10.dtd">
<svg version="1.0" xmlns="http://www.w3.org/2000/svg"
 width="650.000000pt" height="165.000000pt" viewBox="0 0 650.000000 165.000000"
 preserveAspectRatio="xMidYMid meet">

<g transform="translate(0.000000,165.000000) scale(0.100000,-0.100000)"
fill="#ddeeff" stroke="none">
<path d="M320 1546 l-315 -83 -3 -161 -2 -162 32 -13 c70 -30 67 -12 70 -429
l3 -376 30 -44 c42 -60 114 -99 250 -138 114 -32 213 -81 246 -120 16 -19 17
-19 39 5 34 36 126 81 229 110 166 48 236 89 274 158 22 41 22 50 24 412 l2
370 25 27 c14 15 36 28 48 30 23 3 23 4 23 167 l0 164 -325 84 c-178 45 -327
83 -330 82 -3 -1 -147 -38 -320 -83z m649 -21 c162 -42 298 -78 302 -81 5 -3
9 -68 9 -144 l0 -140 -40 -20 c-21 -11 -45 -30 -52 -43 -10 -16 -14 -119 -18
-402 -5 -380 -5 -381 -28 -410 -48 -61 -99 -86 -297 -144 -39 -11 -99 -38
-133 -60 l-62 -41 -59 39 c-33 21 -92 48 -133 61 -171 52 -197 62 -240 89 -25
16 -56 46 -69 67 l-24 39 -3 370 c-1 265 -6 377 -14 393 -7 13 -29 32 -50 43
l-38 19 0 141 c0 124 2 140 18 146 48 19 609 161 622 157 8 -2 147 -37 309
-79z"/>
<path d="M358 1467 l-278 -72 0 -101 c0 -98 1 -101 26 -114 14 -8 37 -33 50
-56 l24 -41 0 -362 c0 -407 -1 -402 73 -445 23 -13 91 -38 150 -55 103 -30
178 -62 222 -94 17 -13 22 -13 50 8 41 32 107 59 207 86 98 26 164 57 198 94
l25 27 5 381 c4 278 8 388 17 404 7 12 29 35 48 51 l36 29 -3 94 -3 94 -280
72 c-154 40 -282 72 -285 72 -3 0 -130 -33 -282 -72z m292 -47 c0 -10 37 -63
83 -117 45 -54 90 -108 98 -120 15 -22 16 -22 95 68 43 50 86 100 95 111 15
20 18 20 72 4 l57 -17 0 -59 0 -59 -162 -186 -163 -186 -3 71 -3 70 -49 0
c-51 0 -61 8 -35 30 8 7 15 18 15 24 0 6 -41 58 -90 116 -49 58 -89 111 -90
119 0 11 -4 9 -15 -5 -30 -40 -19 -68 70 -173 47 -56 85 -103 85 -106 0 -3 -6
-5 -14 -5 -14 0 -173 180 -183 207 -4 11 -8 10 -19 -4 -23 -31 -15 -61 33
-120 25 -32 50 -64 56 -70 7 -10 2 -13 -21 -13 -26 0 -40 10 -82 61 -74 89
-72 97 53 251 56 70 105 127 110 127 4 1 7 -8 7 -19z m-242 -497 c-3 -106 -6
-128 -18 -128 -11 0 -15 12 -15 48 l0 47 -45 0 c-42 0 -47 -3 -64 -35 -11 -20
-27 -35 -37 -35 -15 0 -9 15 31 86 28 47 50 87 50 90 0 2 -18 4 -41 4 -65 0
-43 24 26 28 57 3 57 3 53 -22 -4 -20 -1 -26 11 -26 13 0 16 7 13 35 -4 30 -1
35 17 35 21 0 22 -3 19 -127z m50 0 c-4 -168 -22 -166 -26 2 -2 108 0 125 13
125 13 0 15 -17 13 -127z m332 -30 c0 -83 -1 -88 -30 -118 l-30 -31 -23 -242
c-24 -251 -32 -281 -70 -266 -22 8 -23 10 -47 273 -11 123 -24 231 -29 240 -5
9 -19 25 -30 35 -18 17 -21 30 -21 108 l0 88 140 0 140 0 0 -87z m280 -138 c0
-58 -2 -65 -20 -65 -11 0 -20 4 -20 8 0 5 -47 7 -105 4 l-105 -5 0 53 0 53
105 -5 c83 -4 105 -2 105 9 0 7 9 13 20 13 18 0 20 -7 20 -65z m-546 -8 c8
-12 18 -60 22 -105 l7 -84 -123 -123 c-134 -134 -131 -133 -187 -82 -19 17
-23 31 -23 81 l0 61 137 137 c76 76 141 138 145 138 4 0 14 -10 22 -23z m481
-71 c79 -33 43 -116 -51 -116 -115 0 -112 118 4 129 7 0 28 -5 47 -13z"/>
<path d="M612 1358 c-26 -26 -13 -69 42 -137 123 -149 111 -138 135 -117 12
11 21 22 21 26 0 3 -37 51 -83 106 -46 54 -88 107 -93 117 -8 13 -13 14 -22 5z"/>
<path d="M310 935 c-11 -13 -7 -15 27 -15 29 0 40 4 40 15 0 10 -10 15 -27 15
-15 0 -33 -7 -40 -15z"/>
<path d="M550 881 c0 -46 4 -60 27 -83 26 -27 27 -32 46 -280 26 -345 28 -345
53 -3 18 248 18 249 47 282 24 28 28 39 25 83 l-3 52 -98 1 -97 2 0 -54z"/>
<path d="M860 756 c0 -24 3 -26 51 -26 47 0 50 2 47 23 -3 19 -10 22 -50 25
-46 3 -48 2 -48 -22z"/>
<path d="M997 763 c-13 -12 -7 -23 13 -23 11 0 20 7 20 15 0 15 -21 21 -33 8z"/>
<path d="M915 650 c-20 -33 39 -79 76 -60 24 13 24 25 -1 50 -21 21 -65 27
-75 10z"/>
<path d="M2244 1377 c14 -10 16 -25 14 -87 l-3 -75 -69 -3 -69 -3 17 23 c32
45 41 69 29 86 -9 15 -33 17 -168 20 l-158 3 -29 -28 -29 -28 141 -5 140 -5
-155 -217 c-108 -150 -163 -218 -178 -221 -12 -2 8 -5 45 -6 l67 -1 62 85 61
85 150 0 149 0 -3 -120 -3 -120 48 0 47 0 0 315 0 315 -62 0 c-52 0 -59 -2
-44 -13z m14 -269 l3 -48 -126 0 c-138 0 -134 -4 -82 63 l29 38 87 -3 86 -3 3
-47z"/>
<path d="M2398 1383 c9 -4 12 -76 12 -314 l0 -309 45 0 45 0 0 315 0 315 -57
-1 c-32 0 -52 -3 -45 -6z"/>
<path d="M4118 1383 c9 -3 12 -54 12 -204 l0 -199 -182 2 -183 3 0 145 0 145
127 3 128 3 15 29 16 30 -208 0 c-146 -1 -203 -4 -190 -11 15 -9 17 -30 17
-209 l0 -200 230 0 230 0 0 -80 0 -80 50 0 50 0 0 175 0 175 40 0 40 0 0 -175
0 -175 50 0 50 0 0 315 0 315 -62 -1 c-35 0 -57 -3 -50 -6 8 -3 12 -35 12
-109 l0 -104 -40 0 -40 0 0 110 0 110 -62 -1 c-35 0 -57 -3 -50 -6z"/>
<path d="M5258 1378 c9 -11 13 -68 15 -202 l2 -186 -296 0 -296 0 -21 -23
c-12 -13 -22 -26 -22 -30 0 -4 142 -8 316 -9 l316 -3 2 -85 1 -85 48 -3 47 -3
0 215 0 216 44 0 c35 0 47 5 60 25 9 13 16 27 16 30 0 3 -27 5 -60 5 l-60 0 0
70 0 70 -44 0 c-24 0 -53 3 -63 7 -15 6 -16 4 -5 -9z"/>
<path d="M6010 1382 l-325 -3 -18 -24 -18 -25 306 0 305 0 0 -235 0 -236 -57
3 -58 3 -3 158 -3 157 -62 -1 c-34 0 -56 -3 -49 -6 9 -3 12 -45 12 -159 l0
-155 -57 3 -58 3 -3 158 -3 157 -62 -1 c-34 0 -56 -3 -49 -6 9 -3 12 -45 12
-159 l0 -154 -113 0 -113 0 -17 -30 -18 -30 445 0 445 0 21 28 22 27 -64 5
-63 5 -5 260 c-3 163 -9 260 -15 260 -5 0 -156 -1 -335 -3z"/>
<path d="M3338 1373 c6 -2 12 -18 12 -34 l0 -29 -65 0 c-51 0 -65 3 -65 15 0
13 -36 15 -267 15 -187 -1 -263 -4 -250 -11 15 -9 17 -26 17 -129 l0 -120 250
0 250 0 0 30 0 30 65 0 65 0 0 -40 0 -40 50 0 50 0 0 160 0 160 -62 -1 c-35 0
-57 -3 -50 -6z m-218 -168 l0 -76 -152 3 -153 3 -3 59 c-2 32 -1 65 2 72 4 11
38 14 156 14 l150 0 0 -75z m228 21 c3 -26 3 -26 -62 -26 -62 0 -66 1 -66 23
0 13 2 26 4 28 2 2 31 3 63 3 55 -2 58 -3 61 -28z"/>
<path d="M4828 1373 c6 -2 12 -13 12 -24 0 -17 -8 -19 -104 -19 l-105 0 -22
-31 -22 -31 52 3 c56 4 61 1 31 -26 -56 -50 -27 -139 61 -189 51 -29 60 -31
159 -31 99 0 108 2 159 31 88 50 117 139 61 189 -27 25 -25 35 8 35 17 0 38
10 52 25 l23 25 -126 0 -127 0 0 25 c0 24 -2 25 -62 24 -35 0 -57 -3 -50 -6z
m116 -130 c71 -36 97 -101 55 -139 -34 -31 -125 -26 -178 9 -51 34 -68 67 -55
105 17 49 105 62 178 25z"/>
<path d="M3029 1031 c-63 -12 -143 -48 -170 -77 -37 -39 -32 -90 14 -129 57
-50 133 -70 257 -69 83 0 117 5 162 23 65 25 118 78 118 118 0 38 -63 94 -131
115 -67 21 -187 30 -250 19z m156 -68 c87 -30 123 -104 69 -140 -39 -25 -136
-22 -202 7 -183 80 -62 201 133 133z"/>
<path d="M3710 528 c-104 -54 -104 -187 1 -240 37 -20 113 -24 152 -9 22 9 26
17 29 70 l3 61 -31 0 -30 0 4 -59 c4 -52 2 -60 -15 -65 -30 -10 -94 16 -116
46 -12 17 -22 49 -25 82 -4 51 -2 57 26 86 25 24 39 30 75 30 29 0 53 -7 70
-20 25 -20 25 -20 30 0 7 26 0 29 -70 36 -48 5 -66 2 -103 -18z"/>
<path d="M5666 529 c-43 -34 -36 -72 24 -130 54 -53 65 -90 31 -109 -29 -15
-39 -13 -66 15 l-25 24 0 -23 c0 -27 17 -36 65 -36 48 0 79 29 79 75 0 32 -7
44 -52 86 -53 50 -61 66 -40 87 17 17 48 15 70 -5 17 -15 18 -15 18 4 0 38
-62 45 -104 12z"/>
<path d="M5976 528 c-3 -15 0 -17 22 -11 15 4 38 7 52 8 24 0 25 -2 28 -78 2
-42 -1 -100 -6 -127 l-9 -50 31 0 31 0 -3 131 -3 132 37 -6 c21 -4 41 -12 46
-19 5 -9 8 -6 8 9 0 21 -4 22 -115 25 -102 3 -115 1 -119 -14z"/>
<path d="M1755 405 l0 -135 25 0 c25 0 26 1 22 73 l-5 72 64 -67 c44 -46 74
-69 96 -73 31 -6 28 -3 -42 68 -41 41 -75 79 -75 84 0 6 24 33 54 62 45 42 51
51 33 51 -14 -1 -38 -20 -67 -55 -24 -30 -48 -55 -53 -55 -5 0 -7 25 -5 55 3
53 2 55 -22 55 l-25 0 0 -135z"/>
<path d="M2038 425 c2 -69 -1 -122 -8 -135 -10 -19 -8 -20 70 -20 75 0 80 1
80 21 0 18 -3 19 -14 10 -8 -7 -30 -11 -48 -9 -33 3 -33 3 -36 61 l-3 57 35 0
c19 0 37 -6 39 -12 3 -7 6 -3 6 10 1 19 -4 22 -39 22 l-40 0 0 50 c0 47 2 50
26 50 14 0 34 -5 45 -10 15 -8 19 -7 19 5 0 12 -13 15 -67 15 l-68 0 3 -115z"/>
<path d="M2255 405 l0 -135 31 0 30 0 -8 66 c-8 71 -5 175 6 193 5 7 -4 11
-26 11 l-33 0 0 -135z"/>
<path d="M2436 518 c-3 -13 -12 -66 -20 -118 -8 -52 -17 -103 -21 -112 -6 -15
-2 -18 20 -18 16 0 24 4 20 11 -8 13 4 169 14 169 3 0 19 -29 34 -63 15 -34
36 -72 45 -85 l18 -23 40 85 c21 47 42 85 45 86 8 0 25 -134 21 -162 -1 -14 6
-18 29 -18 26 0 30 3 24 18 -4 9 -16 68 -25 130 -10 62 -21 116 -24 119 -3 3
-28 -40 -55 -97 l-49 -103 -51 102 c-28 55 -53 101 -56 101 -2 0 -7 -10 -9
-22z"/>
<path d="M2747 518 c11 -13 35 -49 53 -81 28 -50 32 -65 28 -112 l-5 -55 35 0
c29 0 33 2 22 15 -24 29 -8 114 34 180 21 33 44 63 50 67 6 4 0 8 -14 7 -21 0
-30 -11 -53 -60 -16 -32 -32 -59 -37 -59 -5 0 -23 27 -42 60 -28 52 -36 60
-62 60 l-29 0 20 -22z"/>
<path d="M3011 438 c4 -57 10 -111 14 -121 16 -39 94 -58 149 -37 39 14 51 47
56 158 5 97 4 102 -15 102 -19 0 -20 -6 -17 -103 3 -90 1 -106 -16 -127 -13
-16 -29 -23 -52 -23 -23 0 -39 7 -52 23 -17 21 -19 37 -16 127 l3 103 -30 0
-30 0 6 -102z"/>
<path d="M3330 424 c0 -63 -5 -124 -10 -135 -10 -17 -7 -19 22 -19 25 0 29 3
20 12 -8 8 -12 45 -12 102 l0 91 104 -104 105 -105 3 137 c3 117 1 137 -12
137 -13 0 -15 -17 -12 -102 l3 -103 -98 103 c-54 56 -101 102 -105 102 -5 0
-8 -52 -8 -116z"/>
<path d="M4080 438 c5 -105 16 -140 50 -158 45 -24 138 -2 155 37 5 10 11 64
14 121 6 97 5 102 -14 102 -19 0 -20 -6 -17 -103 3 -90 1 -106 -16 -127 -25
-31 -75 -31 -105 -1 -20 19 -22 32 -22 126 l0 105 -25 0 -25 0 5 -102z"/>
<path d="M4394 406 c-9 -134 -9 -136 12 -136 21 0 22 2 11 163 -1 20 -2 37 0
37 1 0 46 -45 99 -100 53 -55 101 -100 105 -100 4 0 9 61 11 135 3 130 2 135
-17 135 -20 0 -20 -4 -14 -72 15 -148 22 -146 -94 -30 l-104 103 -9 -135z"/>
<path d="M4735 405 l0 -135 32 0 c31 0 32 1 22 30 -6 16 -9 77 -7 135 l3 105
-25 0 -25 0 0 -135z"/>
<path d="M4859 527 c6 -8 32 -66 58 -130 27 -63 51 -117 56 -119 4 -2 34 57
66 130 52 116 57 132 40 132 -10 0 -19 -6 -19 -12 0 -15 -60 -169 -70 -181 -7
-8 -73 156 -73 180 0 8 -14 13 -35 13 -28 0 -32 -3 -23 -13z"/>
<path d="M5155 405 l0 -136 75 3 c65 3 75 6 79 23 3 16 1 17 -12 6 -9 -7 -31
-11 -49 -9 -33 3 -33 3 -36 61 -3 57 -3 57 26 57 15 0 33 -5 40 -12 9 -9 12
-7 12 10 0 19 -5 22 -40 22 l-40 0 0 50 c0 49 1 50 29 50 17 0 33 -4 36 -10 9
-15 25 -12 25 5 0 12 -15 15 -72 15 l-73 0 0 -135z"/>
<path d="M5385 405 l0 -135 26 0 c25 0 25 1 21 60 -4 58 -4 60 20 60 17 0 29
-10 42 -34 26 -48 55 -73 96 -80 l35 -7 -28 21 c-15 12 -41 42 -58 67 l-31 45
21 22 c26 28 27 70 1 96 -16 16 -33 20 -82 20 l-63 0 0 -135z m107 108 c37
-34 16 -103 -32 -103 -30 0 -30 0 -30 60 0 55 2 60 22 60 12 0 30 -7 40 -17z"/>
<path d="M5868 458 c2 -46 0 -107 -6 -135 l-9 -53 31 0 31 0 0 135 0 135 -25
0 c-25 0 -25 0 -22 -82z"/>
<path d="M6253 508 c53 -72 77 -124 77 -169 0 -25 -5 -50 -12 -57 -9 -9 -4
-12 23 -12 l35 0 -4 63 c-3 59 -1 65 42 135 39 62 42 72 25 72 -10 0 -19 -5
-19 -10 0 -6 -14 -35 -32 -66 l-31 -56 -36 66 c-31 57 -40 66 -64 66 l-28 0
24 -32z"/>
</g>
</svg>
